<svg width="203" height="200" viewBox="0 0 203 200" fill="none" xmlns="http://www.w3.org/2000/svg">
<path d="M169.091 145.497L168.938 64.2957C168.938 61.1357 165.473 59.4026 163.897 59.1746L53.8356 45.1859C53.5466 45.1469 53.2516 45.1199 52.9606 45.1009C50.8176 44.9599 49.0406 45.3135 47.5986 46.0145C44.9066 47.2665 43.0016 49.7718 43.0056 53.6668V157.773C42.4356 163.107 46.1166 168.214 53.7846 167.035L162.971 150.198C165.938 149.643 169.091 147.853 169.091 145.497Z" fill="url(#paint0_linear_2153_163)"/>
<path d="M43.0018 128.38C60.2008 125.919 80.1348 124.509 101.392 124.509C126.588 124.509 149.936 126.49 169.061 129.859L169.091 145.498C169.091 147.854 165.939 149.644 162.971 150.195L53.7818 167.037C46.1178 168.214 42.4318 163.108 43.0028 157.774L43.0018 128.38Z" fill="url(#paint1_linear_2153_163)"/>
<path d="M60.2363 145.569H60.2403L81.1363 143.335V124.764L60.2363 126.024V145.569ZM155.148 135.423V120.315L87.0423 124.411V142.701L155.148 135.423ZM155.148 112.493V96.8506L87.0423 97.0225V116.24L155.148 112.493ZM155.148 89.3125V74.5923L87.0423 70.0645V88.7642L155.148 89.3125ZM60.2363 97.0923L81.1363 97.0386V116.562L60.2363 117.712V97.0923Z" fill="url(#paint2_linear_2153_163)"/>
<path d="M81.9 68.3911L61 67V87.2661L81.9 87.4351V68.3911Z" fill="url(#paint3_linear_2153_163)"/>
<path d="M25.18 26.1489C11.2733 28.1291 1.62976 41.1798 3.58548 54.9143C4.62853 62.2394 8.29939 67.7891 13.4246 71.7303C14.1671 72.5588 14.8064 72.9349 15.6102 73.7546L52.286 101.696L79.7047 64.6279L81.0188 62.5723C85.0046 57.3337 87.0357 50.5051 85.9927 43.18C84.0369 29.4455 71.1357 19.6051 57.2272 21.5856C51.1428 22.4519 45.8182 25.0783 41.9858 29.3608C37.1105 26.3182 31.2639 25.2826 25.18 26.1489Z" fill="#C0392B"/>
<path d="M27.6117 30.4735C15.2502 32.2338 6.6637 43.7327 8.42385 56.0938C9.27132 62.0454 12.5628 67.1815 17.1262 70.7356C17.8004 71.5738 18.3761 71.959 19.0401 72.3316L51.6335 97.118L76.0119 64.2191L77.2173 62.6465C80.7555 57.9388 82.5873 52.0728 81.6747 45.6633C79.9145 33.3022 68.4587 24.6572 56.0976 26.4173C50.6908 27.1872 45.9842 29.7257 42.572 33.4813C38.2471 30.8274 33.019 29.7036 27.6117 30.4735Z" fill="#E74C3C"/>
<defs>
<linearGradient id="paint0_linear_2153_163" x1="37.6721" y1="124.32" x2="168.079" y2="73.9361" gradientUnits="userSpaceOnUse">
<stop stop-color="#2F1BE7"/>
<stop offset="0.451" stop-color="#4835EA"/>
<stop offset="1" stop-color="#C468F8"/>
</linearGradient>
<linearGradient id="paint1_linear_2153_163" x1="42.2493" y1="125.235" x2="166.216" y2="168.221" gradientUnits="userSpaceOnUse">
<stop stop-color="#4C17A5"/>
<stop offset="1" stop-color="#2A9CE2"/>
</linearGradient>
<linearGradient id="paint2_linear_2153_163" x1="60.2348" y1="106.924" x2="155.147" y2="106.924" gradientUnits="userSpaceOnUse">
<stop stop-color="#00FFFF"/>
<stop offset="0.3491" stop-color="#00FCFE"/>
<stop offset="0.5792" stop-color="#01F3FC"/>
<stop offset="0.7749" stop-color="#01E4F8"/>
<stop offset="0.9504" stop-color="#03CFF3"/>
<stop offset="1" stop-color="#03C8F1"/>
</linearGradient>
<linearGradient id="paint3_linear_2153_163" x1="60.9984" y1="105.642" x2="155.91" y2="105.642" gradientUnits="userSpaceOnUse">
<stop stop-color="#00FFFF"/>
<stop offset="0.3491" stop-color="#00FCFE"/>
<stop offset="0.5792" stop-color="#01F3FC"/>
<stop offset="0.7749" stop-color="#01E4F8"/>
<stop offset="0.9504" stop-color="#03CFF3"/>
<stop offset="1" stop-color="#03C8F1"/>
</linearGradient>
</defs>
</svg>
